<svg preserveAspectRatio="none" width="100%" height="100%" overflow="visible" style="display: block;" viewBox="0 0 285.303 36.38" fill="none" xmlns="http://www.w3.org/2000/svg">
<g id="ROBOTIC HAIR RESTORATION OF LONG ISLAND">
<path d="M7.54 14.24L4.62 8.94H3.8V14.24H0.38V0.2H6.12C7.22667 0.2 8.16667 0.393333 8.94 0.779999C9.72667 1.16667 10.3133 1.7 10.7 2.38C11.0867 3.04667 11.28 3.79333 11.28 4.62C11.28 5.55333 11.0133 6.38667 10.48 7.12C9.96 7.85333 9.18667 8.37333 8.16 8.68L11.4 14.24H7.54ZM3.8 6.52H5.92C6.54667 6.52 7.01333 6.36667 7.32 6.06C7.64 5.75333 7.8 5.32 7.8 4.76C7.8 4.22667 7.64 3.80667 7.32 3.5C7.01333 3.19333 6.54667 3.04 5.92 3.04H3.8V6.52Z" fill="var(--fill-0, white)"/>
<path d="M20.0669 14.38C18.7469 14.38 17.5335 14.0733 16.4269 13.46C15.3335 12.8467 14.4602 11.9933 13.8069 10.9C13.1669 9.79333 12.8469 8.55333 12.8469 7.18C12.8469 5.80667 13.1669 4.57333 13.8069 3.48C14.4602 2.38667 15.3335 1.53333 16.4269 0.92C17.5335 0.306667 18.7469 0 20.0669 0C21.3869 0 22.5935 0.306667 23.6869 0.92C24.7935 1.53333 25.6602 2.38667 26.2869 3.48C26.9269 4.57333 27.2469 5.80667 27.2469 7.18C27.2469 8.55333 26.9269 9.79333 26.2869 10.9C25.6469 11.9933 24.7802 12.8467 23.6869 13.46C22.5935 14.0733 21.3869 14.38 20.0669 14.38ZM20.0669 11.26C21.1869 11.26 22.0802 10.8867 22.7469 10.14C23.4269 9.39333 23.7669 8.40667 23.7669 7.18C23.7669 5.94 23.4269 4.95333 22.7469 4.22C22.0802 3.47333 21.1869 3.1 20.0669 3.1C18.9335 3.1 18.0269 3.46667 17.3469 4.2C16.6802 4.93333 16.3469 5.92667 16.3469 7.18C16.3469 8.42 16.6802 9.41333 17.3469 10.16C18.0269 10.8933 18.9335 11.26 20.0669 11.26Z" fill="var(--fill-0, white)"/>
<path d="M37.6495 7.04C38.4629 7.21333 39.1162 7.62 39.6095 8.26C40.1029 8.88667 40.3495 9.60667 40.3495 10.42C40.3495 11.5933 39.9362 12.5267 39.1095 13.22C38.2962 13.9 37.1562 14.24 35.6895 14.24H29.1495V0.2H35.4695C36.8962 0.2 38.0095 0.526666 38.8095 1.18C39.6229 1.83333 40.0295 2.72 40.0295 3.84C40.0295 4.66667 39.8095 5.35333 39.3695 5.9C38.9429 6.44667 38.3695 6.82667 37.6495 7.04ZM32.5695 5.88H34.8095C35.3695 5.88 35.7962 5.76 36.0895 5.52C36.3962 5.26667 36.5495 4.9 36.5495 4.42C36.5495 3.94 36.3962 3.57333 36.0895 3.32C35.7962 3.06667 35.3695 2.94 34.8095 2.94H32.5695V5.88ZM35.0895 11.48C35.6629 11.48 36.1029 11.3533 36.4095 11.1C36.7295 10.8333 36.8895 10.4533 36.8895 9.96C36.8895 9.46667 36.7229 9.08 36.3895 8.8C36.0695 8.52 35.6229 8.38 35.0495 8.38H32.5695V11.48H35.0895Z" fill="var(--fill-0, white)"/>
<path d="M48.9731 14.38C47.6531 14.38 46.4398 14.0733 45.3331 13.46C44.2398 12.8467 43.3665 11.9933 42.7131 10.9C42.0731 9.79333 41.7531 8.55333 41.7531 7.18C41.7531 5.80667 42.0731 4.57333 42.7131 3.48C43.3665 2.38667 44.2398 1.53333 45.3331 0.92C46.4398 0.306667 47.6531 0 48.9731 0C50.2931 0 51.4998 0.306667 52.5931 0.92C53.6998 1.53333 54.5665 2.38667 55.1931 3.48C55.8331 4.57333 56.1531 5.80667 56.1531 7.18C56.1531 8.55333 55.8331 9.79333 55.1931 10.9C54.5531 11.9933 53.6865 12.8467 52.5931 13.46C51.4998 14.0733 50.2931 14.38 48.9731 14.38ZM48.9731 11.26C50.0931 11.26 50.9865 10.8867 51.6531 10.14C52.3331 9.39333 52.6731 8.40667 52.6731 7.18C52.6731 5.94 52.3331 4.95333 51.6531 4.22C50.9865 3.47333 50.0931 3.1 48.9731 3.1C47.8398 3.1 46.9331 3.46667 46.2531 4.2C45.5865 4.93333 45.2531 5.92667 45.2531 7.18C45.2531 8.42 45.5865 9.41333 46.2531 10.16C46.9331 10.8933 47.8398 11.26 48.9731 11.26Z" fill="var(--fill-0, white)"/>
<path d="M68.1558 0.2V2.94H64.4358V14.24H61.0158V2.94H57.2958V0.2H68.1558Z" fill="var(--fill-0, white)"/>
<path d="M73.2922 0.2V14.24H69.8722V0.2H73.2922Z" fill="var(--fill-0, white)"/>
<path d="M75.1906 7.2C75.1906 5.81333 75.4906 4.58 76.0906 3.5C76.6906 2.40667 77.524 1.56 78.5906 0.96C79.6706 0.346666 80.8906 0.0399995 82.2506 0.0399995C83.9173 0.0399995 85.344 0.479999 86.5306 1.36C87.7173 2.24 88.5106 3.44 88.9106 4.96H85.1506C84.8706 4.37333 84.4706 3.92667 83.9506 3.62C83.444 3.31333 82.864 3.16 82.2106 3.16C81.1573 3.16 80.304 3.52667 79.6506 4.26C78.9973 4.99333 78.6706 5.97333 78.6706 7.2C78.6706 8.42667 78.9973 9.40667 79.6506 10.14C80.304 10.8733 81.1573 11.24 82.2106 11.24C82.864 11.24 83.444 11.0867 83.9506 10.78C84.4706 10.4733 84.8706 10.0267 85.1506 9.44H88.9106C88.5106 10.96 87.7173 12.16 86.5306 13.04C85.344 13.9067 83.9173 14.34 82.2506 14.34C80.8906 14.34 79.6706 14.04 78.5906 13.44C77.524 12.8267 76.6906 11.98 76.0906 10.9C75.4906 9.82 75.1906 8.58667 75.1906 7.2Z" fill="var(--fill-0, white)"/>
<path d="M107.403 0.2V14.24H103.983V8.46H98.6633V14.24H95.2433V0.2H98.6633V5.7H103.983V0.2H107.403Z" fill="var(--fill-0, white)"/>
<path d="M118.612 11.76H113.372L112.532 14.24H108.952L114.032 0.2H117.992L123.072 14.24H119.452L118.612 11.76ZM117.732 9.12L115.992 3.98L114.272 9.12H117.732Z" fill="var(--fill-0, white)"/>
<path d="M128.038 0.2V14.24H124.618V0.2H128.038Z" fill="var(--fill-0, white)"/>
<path d="M137.677 14.24L134.757 8.94H133.937V14.24H130.517V0.2H136.257C137.363 0.2 138.303 0.393333 139.077 0.779999C139.863 1.16667 140.45 1.7 140.837 2.38C141.223 3.04667 141.417 3.79333 141.417 4.62C141.417 5.55333 141.15 6.38667 140.617 7.12C140.097 7.85333 139.323 8.37333 138.297 8.68L141.537 14.24H137.677ZM133.937 6.52H136.057C136.683 6.52 137.15 6.36667 137.457 6.06C137.777 5.75333 137.937 5.32 137.937 4.76C137.937 4.22667 137.777 3.80667 137.457 3.5C137.15 3.19333 136.683 3.04 136.057 3.04H133.937V6.52Z" fill="var(--fill-0, white)"/>
<path d="M154.962 14.24L152.042 8.94H151.222V14.24H147.802V0.2H153.542C154.649 0.2 155.589 0.393333 156.362 0.779999C157.149 1.16667 157.735 1.7 158.122 2.38C158.509 3.04667 158.702 3.79333 158.702 4.62C158.702 5.55333 158.435 6.38667 157.902 7.12C157.382 7.85333 156.609 8.37333 155.582 8.68L158.822 14.24H154.962ZM151.222 6.52H153.342C153.969 6.52 154.435 6.36667 154.742 6.06C155.062 5.75333 155.222 5.32 155.222 4.76C155.222 4.22667 155.062 3.80667 154.742 3.5C154.435 3.19333 153.969 3.04 153.342 3.04H151.222V6.52Z" fill="var(--fill-0, white)"/>
<path d="M164.269 2.94V5.78H168.849V8.42H164.269V11.5H169.449V14.24H160.849V0.2H169.449V2.94H164.269Z" fill="var(--fill-0, white)"/>
<path d="M176.749 14.38C175.722 14.38 174.802 14.2133 173.989 13.88C173.176 13.5467 172.522 13.0533 172.029 12.4C171.549 11.7467 171.296 10.96 171.269 10.04H174.909C174.962 10.56 175.142 10.96 175.449 11.24C175.756 11.5067 176.156 11.64 176.649 11.64C177.156 11.64 177.556 11.5267 177.849 11.3C178.142 11.06 178.289 10.7333 178.289 10.32C178.289 9.97333 178.169 9.68667 177.929 9.46C177.702 9.23333 177.416 9.04667 177.069 8.9C176.736 8.75333 176.256 8.58667 175.629 8.4C174.722 8.12 173.982 7.84 173.409 7.56C172.836 7.28 172.342 6.86667 171.929 6.32C171.516 5.77333 171.309 5.06 171.309 4.18C171.309 2.87333 171.782 1.85333 172.729 1.12C173.676 0.373333 174.909 0 176.429 0C177.976 0 179.222 0.373333 180.169 1.12C181.116 1.85333 181.622 2.88 181.689 4.2H177.989C177.962 3.74667 177.796 3.39333 177.489 3.14C177.182 2.87333 176.789 2.74 176.309 2.74C175.896 2.74 175.562 2.85333 175.309 3.08C175.056 3.29333 174.929 3.60667 174.929 4.02C174.929 4.47333 175.142 4.82667 175.569 5.08C175.996 5.33333 176.662 5.60667 177.569 5.9C178.476 6.20667 179.209 6.5 179.769 6.78C180.342 7.06 180.836 7.46667 181.249 8C181.662 8.53333 181.869 9.22 181.869 10.06C181.869 10.86 181.662 11.5867 181.249 12.24C180.849 12.8933 180.262 13.4133 179.489 13.8C178.716 14.1867 177.802 14.38 176.749 14.38Z" fill="var(--fill-0, white)"/>
<path d="M194.074 0.2V2.94H190.354V14.24H186.934V2.94H183.214V0.2H194.074Z" fill="var(--fill-0, white)"/>
<path d="M202.43 14.38C201.11 14.38 199.897 14.0733 198.79 13.46C197.697 12.8467 196.823 11.9933 196.17 10.9C195.53 9.79333 195.21 8.55333 195.21 7.18C195.21 5.80667 195.53 4.57333 196.17 3.48C196.823 2.38667 197.697 1.53333 198.79 0.92C199.897 0.306667 201.11 0 202.43 0C203.75 0 204.957 0.306667 206.05 0.92C207.157 1.53333 208.023 2.38667 208.65 3.48C209.29 4.57333 209.61 5.80667 209.61 7.18C209.61 8.55333 209.29 9.79333 208.65 10.9C208.01 11.9933 207.143 12.8467 206.05 13.46C204.957 14.0733 203.75 14.38 202.43 14.38ZM202.43 11.26C203.55 11.26 204.443 10.8867 205.11 10.14C205.79 9.39333 206.13 8.40667 206.13 7.18C206.13 5.94 205.79 4.95333 205.11 4.22C204.443 3.47333 203.55 3.1 202.43 3.1C201.297 3.1 200.39 3.46667 199.71 4.2C199.043 4.93333 198.71 5.92667 198.71 7.18C198.71 8.42 199.043 9.41333 199.71 10.16C200.39 10.8933 201.297 11.26 202.43 11.26Z" fill="var(--fill-0, white)"/>
<path d="M218.673 14.24L215.753 8.94H214.933V14.24H211.513V0.2H217.253C218.359 0.2 219.299 0.393333 220.073 0.779999C220.859 1.16667 221.446 1.7 221.833 2.38C222.219 3.04667 222.413 3.79333 222.413 4.62C222.413 5.55333 222.146 6.38667 221.613 7.12C221.093 7.85333 220.319 8.37333 219.293 8.68L222.533 14.24H218.673ZM214.933 6.52H217.053C217.679 6.52 218.146 6.36667 218.453 6.06C218.773 5.75333 218.933 5.32 218.933 4.76C218.933 4.22667 218.773 3.80667 218.453 3.5C218.146 3.19333 217.679 3.04 217.053 3.04H214.933V6.52Z" fill="var(--fill-0, white)"/>
<path d="M233.3 11.76H228.06L227.22 14.24H223.64L228.72 0.2H232.68L237.76 14.24H234.14L233.3 11.76ZM232.42 9.12L230.68 3.98L228.96 9.12H232.42Z" fill="var(--fill-0, white)"/>
<path d="M249.406 0.2V2.94H245.686V14.24H242.266V2.94H238.546V0.2H249.406Z" fill="var(--fill-0, white)"/>
<path d="M254.542 0.2V14.24H251.122V0.2H254.542Z" fill="var(--fill-0, white)"/>
<path d="M263.661 14.38C262.341 14.38 261.127 14.0733 260.021 13.46C258.927 12.8467 258.054 11.9933 257.401 10.9C256.761 9.79333 256.441 8.55333 256.441 7.18C256.441 5.80667 256.761 4.57333 257.401 3.48C258.054 2.38667 258.927 1.53333 260.021 0.92C261.127 0.306667 262.341 0 263.661 0C264.981 0 266.187 0.306667 267.281 0.92C268.387 1.53333 269.254 2.38667 269.881 3.48C270.521 4.57333 270.841 5.80667 270.841 7.18C270.841 8.55333 270.521 9.79333 269.881 10.9C269.241 11.9933 268.374 12.8467 267.281 13.46C266.187 14.0733 264.981 14.38 263.661 14.38ZM263.661 11.26C264.781 11.26 265.674 10.8867 266.341 10.14C267.021 9.39333 267.361 8.40667 267.361 7.18C267.361 5.94 267.021 4.95333 266.341 4.22C265.674 3.47333 264.781 3.1 263.661 3.1C262.527 3.1 261.621 3.46667 260.941 4.2C260.274 4.93333 259.941 5.92667 259.941 7.18C259.941 8.42 260.274 9.41333 260.941 10.16C261.621 10.8933 262.527 11.26 263.661 11.26Z" fill="var(--fill-0, white)"/>
<path d="M285.303 14.24H281.883L276.163 5.58V14.24H272.743V0.2H276.163L281.883 8.9V0.2H285.303V14.24Z" fill="var(--fill-0, white)"/>
<path d="M7 36.38C5.70667 36.38 4.52667 36.08 3.46 35.48C2.39333 34.8667 1.54667 34.02 0.92 32.94C0.306667 31.8467 0 30.62 0 29.26C0 27.9 0.306667 26.68 0.92 25.6C1.54667 24.5067 2.39333 23.66 3.46 23.06C4.52667 22.4467 5.70667 22.14 7 22.14C8.30667 22.14 9.49333 22.4467 10.56 23.06C11.6267 23.66 12.4667 24.5 13.08 25.58C13.6933 26.66 14 27.8867 14 29.26C14 30.6333 13.6933 31.86 13.08 32.94C12.4667 34.02 11.6267 34.8667 10.56 35.48C9.49333 36.08 8.30667 36.38 7 36.38ZM7 34.8C7.97333 34.8 8.84667 34.5733 9.62 34.12C10.4067 33.6667 11.02 33.02 11.46 32.18C11.9133 31.34 12.14 30.3667 12.14 29.26C12.14 28.14 11.9133 27.1667 11.46 26.34C11.02 25.5 10.4133 24.8533 9.64 24.4C8.86667 23.9467 7.98667 23.72 7 23.72C6.01333 23.72 5.13333 23.9467 4.36 24.4C3.58667 24.8533 2.97333 25.5 2.52 26.34C2.08 27.1667 1.86 28.14 1.86 29.26C1.86 30.3667 2.08 31.34 2.52 32.18C2.97333 33.02 3.58667 33.6667 4.36 34.12C5.14667 34.5733 6.02667 34.8 7 34.8Z" fill="var(--fill-0, white)"/>
<path d="M24.2827 22.3V23.78H18.2227V28.48H23.1427V29.96H18.2227V36.24H16.4027V22.3H24.2827Z" fill="var(--fill-0, white)"/>
<path d="M33.6328 34.76H38.5128V36.24H31.8128V22.3H33.6328V34.76Z" fill="var(--fill-0, white)"/>
<path d="M46.7656 36.38C45.4723 36.38 44.2923 36.08 43.2256 35.48C42.159 34.8667 41.3123 34.02 40.6856 32.94C40.0723 31.8467 39.7656 30.62 39.7656 29.26C39.7656 27.9 40.0723 26.68 40.6856 25.6C41.3123 24.5067 42.159 23.66 43.2256 23.06C44.2923 22.4467 45.4723 22.14 46.7656 22.14C48.0723 22.14 49.259 22.4467 50.3256 23.06C51.3923 23.66 52.2323 24.5 52.8456 25.58C53.459 26.66 53.7656 27.8867 53.7656 29.26C53.7656 30.6333 53.459 31.86 52.8456 32.94C52.2323 34.02 51.3923 34.8667 50.3256 35.48C49.259 36.08 48.0723 36.38 46.7656 36.38ZM46.7656 34.8C47.739 34.8 48.6123 34.5733 49.3856 34.12C50.1723 33.6667 50.7856 33.02 51.2256 32.18C51.679 31.34 51.9056 30.3667 51.9056 29.26C51.9056 28.14 51.679 27.1667 51.2256 26.34C50.7856 25.5 50.179 24.8533 49.4056 24.4C48.6323 23.9467 47.7523 23.72 46.7656 23.72C45.779 23.72 44.899 23.9467 44.1256 24.4C43.3523 24.8533 42.739 25.5 42.2856 26.34C41.8456 27.1667 41.6256 28.14 41.6256 29.26C41.6256 30.3667 41.8456 31.34 42.2856 32.18C42.739 33.02 43.3523 33.6667 44.1256 34.12C44.9123 34.5733 45.7923 34.8 46.7656 34.8Z" fill="var(--fill-0, white)"/>
<path d="M67.1283 36.24H65.3083L57.9883 25.14V36.24H56.1683V22.28H57.9883L65.3083 33.36V22.28H67.1283V36.24Z" fill="var(--fill-0, white)"/>
<path d="M80.7908 26.34C80.4041 25.5267 79.8441 24.9 79.1108 24.46C78.3774 24.0067 77.5241 23.78 76.5508 23.78C75.5774 23.78 74.6974 24.0067 73.9108 24.46C73.1374 24.9 72.5241 25.54 72.0708 26.38C71.6308 27.2067 71.4108 28.1667 71.4108 29.26C71.4108 30.3533 71.6308 31.3133 72.0708 32.14C72.5241 32.9667 73.1374 33.6067 73.9108 34.06C74.6974 34.5 75.5774 34.72 76.5508 34.72C77.9108 34.72 79.0308 34.3133 79.9108 33.5C80.7908 32.6867 81.3041 31.5867 81.4508 30.2H75.8908V28.72H83.3908V30.12C83.2841 31.2667 82.9241 32.32 82.3108 33.28C81.6974 34.2267 80.8908 34.98 79.8908 35.54C78.8908 36.0867 77.7774 36.36 76.5508 36.36C75.2574 36.36 74.0774 36.06 73.0108 35.46C71.9441 34.8467 71.0974 34 70.4708 32.92C69.8574 31.84 69.5508 30.62 69.5508 29.26C69.5508 27.9 69.8574 26.68 70.4708 25.6C71.0974 24.5067 71.9441 23.66 73.0108 23.06C74.0774 22.4467 75.2574 22.14 76.5508 22.14C78.0308 22.14 79.3374 22.5067 80.4708 23.24C81.6174 23.9733 82.4508 25.0067 82.9708 26.34H80.7908Z" fill="var(--fill-0, white)"/>
<path d="M92.9492 22.3V36.24H91.1292V22.3H92.9492Z" fill="var(--fill-0, white)"/>
<path d="M100.471 36.38C99.5511 36.38 98.7244 36.22 97.9911 35.9C97.2711 35.5667 96.7044 35.1133 96.2911 34.54C95.8778 33.9533 95.6644 33.28 95.6511 32.52H97.5911C97.6578 33.1733 97.9244 33.7267 98.3911 34.18C98.8711 34.62 99.5644 34.84 100.471 34.84C101.338 34.84 102.018 34.6267 102.511 34.2C103.018 33.76 103.271 33.2 103.271 32.52C103.271 31.9867 103.124 31.5533 102.831 31.22C102.538 30.8867 102.171 30.6333 101.731 30.46C101.291 30.2867 100.698 30.1 99.9511 29.9C99.0311 29.66 98.2911 29.42 97.7311 29.18C97.1844 28.94 96.7111 28.5667 96.3111 28.06C95.9244 27.54 95.7311 26.8467 95.7311 25.98C95.7311 25.22 95.9244 24.5467 96.3111 23.96C96.6978 23.3733 97.2378 22.92 97.9311 22.6C98.6378 22.28 99.4444 22.12 100.351 22.12C101.658 22.12 102.724 22.4467 103.551 23.1C104.391 23.7533 104.864 24.62 104.971 25.7H102.971C102.904 25.1667 102.624 24.7 102.131 24.3C101.638 23.8867 100.984 23.68 100.171 23.68C99.4111 23.68 98.7911 23.88 98.3111 24.28C97.8311 24.6667 97.5911 25.2133 97.5911 25.92C97.5911 26.4267 97.7311 26.84 98.0111 27.16C98.3044 27.48 98.6578 27.7267 99.0711 27.9C99.4978 28.06 100.091 28.2467 100.851 28.46C101.771 28.7133 102.511 28.9667 103.071 29.22C103.631 29.46 104.111 29.84 104.511 30.36C104.911 30.8667 105.111 31.56 105.111 32.44C105.111 33.12 104.931 33.76 104.571 34.36C104.211 34.96 103.678 35.4467 102.971 35.82C102.264 36.1933 101.431 36.38 100.471 36.38Z" fill="var(--fill-0, white)"/>
<path d="M109.609 34.76H114.489V36.24H107.789V22.3H109.609V34.76Z" fill="var(--fill-0, white)"/>
<path d="M124.662 33.14H118.582L117.462 36.24H115.542L120.582 22.38H122.682L127.702 36.24H125.782L124.662 33.14ZM124.142 31.66L121.622 24.62L119.102 31.66H124.142Z" fill="var(--fill-0, white)"/>
<path d="M140.859 36.24H139.039L131.719 25.14V36.24H129.899V22.28H131.719L139.039 33.36V22.28H140.859V36.24Z" fill="var(--fill-0, white)"/>
<path d="M148.301 22.3C149.821 22.3 151.135 22.5867 152.241 23.16C153.361 23.72 154.215 24.5267 154.801 25.58C155.401 26.6333 155.701 27.8733 155.701 29.3C155.701 30.7267 155.401 31.9667 154.801 33.02C154.215 34.06 153.361 34.86 152.241 35.42C151.135 35.9667 149.821 36.24 148.301 36.24H143.961V22.3H148.301ZM148.301 34.74C150.101 34.74 151.475 34.2667 152.421 33.32C153.368 32.36 153.841 31.02 153.841 29.3C153.841 27.5667 153.361 26.2133 152.401 25.24C151.455 24.2667 150.088 23.78 148.301 23.78H145.781V34.74H148.301Z" fill="var(--fill-0, white)"/>
</g>
</svg>
